# xmcd
#
# Track frame offsets:
#	150
#	21700
#	43712
#	64013
#	85055
#	107772
#	121250
#	143141
#	155093
#	171588
#
# Disc length: 2630 seconds
#
# Revision: 1
# Processed by: cddbd v1.5.2PL0 Copyright (c) Steve Scherf et al.
# Submitted via: audiograbber 1.83.01
#
DISCID=8d0a440a
DTITLE=Stiller Has - So verdorbe
DYEAR=2009
DGENRE=CH Blues
TTITLE0=König
TTITLE1=So verdorbe
TTITLE2=Chlyne Tod
TTITLE3=D'Helfti
TTITLE4=Schifahre
TTITLE5=In cerca di te
TTITLE6=Venedig
TTITLE7=Guarda che luna
TTITLE8=Justine
TTITLE9=Merci
EXTD=
EXTT0=
EXTT1=
EXTT2=
EXTT3=
EXTT4=
EXTT5=
EXTT6=
EXTT7=
EXTT8=
EXTT9=
PLAYORDER=
